<svg width="221" height="34" viewBox="0 0 221 34" fill="none" xmlns="http://www.w3.org/2000/svg">
<path d="M0.188875 19.0746C0.999542 18.9039 1.69288 18.6959 2.26888 18.4506C2.84488 18.2159 3.27688 17.9866 3.56488 17.7626C3.85288 17.5279 4.00221 17.3359 4.01288 17.1866L4.02888 16.5146C4.02888 16.3439 4.10888 16.1359 4.26888 15.8906C4.42888 15.6346 4.61021 15.4159 4.81288 15.2346C5.02621 15.0426 5.21821 14.9466 5.38888 14.9466C5.68754 14.9466 5.83688 15.2613 5.83688 15.8906C5.83688 16.7439 5.74088 17.5226 5.54888 18.2266C5.35688 18.9413 4.86621 19.6346 4.07688 20.3066C3.29821 20.9786 2.10887 21.4639 0.508875 21.7626L0.188875 19.0746ZM3.50088 11.1866L5.64488 11.0106C5.77288 13.0266 5.83688 14.6533 5.83688 15.8906C5.83688 16.5306 5.76221 17.0639 5.61288 17.4906C5.47421 17.9173 5.29821 18.2266 5.08488 18.4186C4.87154 18.6213 4.65821 18.7226 4.44488 18.7226C4.29554 18.7226 4.16754 18.6693 4.06088 18.5626C3.95421 18.4666 3.89554 18.3333 3.88488 18.1626L3.50088 11.1866ZM7.22413 6.94659L9.40013 6.75459V17.7946L7.41613 17.9226L7.22413 6.94659ZM18.4443 13.8586C18.4869 14.1146 18.5456 14.3119 18.6203 14.4506C18.6949 14.5893 18.8229 14.6959 19.0043 14.7706C19.1963 14.8453 19.4736 14.8826 19.8363 14.8826H20.1243L20.2843 15.0426V17.6346L20.1243 17.7946H19.6603C18.8709 17.7946 18.1936 17.5226 17.6283 16.9786C17.0629 16.4346 16.6949 15.7306 16.5243 14.8666L15.4043 9.17059L17.4523 8.33859L18.4443 13.8586ZM17.9643 12.8666C18.2523 13.6133 18.3963 14.2799 18.3963 14.8666C18.3963 16.0293 17.9003 16.8399 16.9083 17.2986C15.9269 17.7466 14.6789 17.9706 13.1643 17.9706C11.6389 17.9706 10.8763 17.0799 10.8763 15.2986V12.5466L12.6523 12.5786V15.0586C14.4443 15.0586 15.7243 14.9466 16.4923 14.7226L16.3643 13.9706L17.9643 12.8666ZM20.125 14.8826C21.4903 14.8826 22.397 14.8559 22.845 14.8026L22.669 10.7866L24.861 10.6906V14.4986C24.861 15.7786 24.4343 16.6479 23.581 17.1066C22.7383 17.5653 21.5863 17.7946 20.125 17.7946V14.8826ZM22.669 19.0906V21.1386H20.109V19.0906H22.669ZM24.621 19.0906V21.1386H22.061V19.0906H24.621ZM30.2341 17.7946C29.5195 17.7946 28.9221 17.7359 28.4421 17.6186C27.9621 17.4906 27.5568 17.2133 27.2261 16.7866C26.9061 16.3493 26.7355 15.6933 26.7141 14.8186L26.4741 6.94659L28.6501 6.75459V14.3066C28.6501 14.4773 28.6821 14.5999 28.7461 14.6746C28.8208 14.7493 28.9648 14.8026 29.1781 14.8346C29.3915 14.8666 29.7435 14.8826 30.2341 14.8826L30.3941 15.0426V17.6346L30.2341 17.7946ZM30.2344 14.8826C31.5997 14.8826 32.5064 14.8559 32.9544 14.8026L32.7784 10.7866L34.9704 10.6906V14.4986C34.9704 15.7786 34.5437 16.6479 33.6904 17.1066C32.8477 17.5653 31.6957 17.7946 30.2344 17.7946V14.8826ZM32.6504 19.0746H35.0824V21.0746H32.6504V19.0746ZM31.6424 21.0746H33.6744V22.7226H31.6424V21.0746ZM30.2344 19.0746H32.6504V21.0746H30.2344V19.0746ZM44.2463 17.9226C42.4329 17.9226 41.1529 17.6079 40.4062 16.9786C39.6596 16.3493 39.2863 15.4479 39.2863 14.2746C39.2863 13.9439 39.3076 13.4959 39.3503 12.9306C39.3929 12.3546 39.4409 11.8213 39.4943 11.3306L41.2063 11.4586C41.1209 12.5466 41.0783 13.3039 41.0783 13.7306C41.0783 14.0613 41.1689 14.3173 41.3503 14.4986C41.5316 14.6693 41.8836 14.7973 42.4062 14.8826C42.9289 14.9679 43.7076 15.0106 44.7423 15.0106C45.5956 15.0106 46.4489 14.9786 47.3023 14.9146C48.1556 14.8399 48.8969 14.7333 49.5263 14.5946L49.3663 11.0746L51.5263 10.8986V14.2586C51.5263 15.5919 51.0783 16.5039 50.1823 16.9946C49.4463 17.3893 48.5663 17.6453 47.5423 17.7626C46.5289 17.8693 45.4303 17.9226 44.2463 17.9226ZM45.6863 9.98659V12.0346H43.1263V9.98659H45.6863ZM47.6383 9.98659V12.0346H45.0783V9.98659H47.6383ZM49.8295 19.0746C50.6402 18.9039 51.3335 18.6959 51.9095 18.4506C52.4855 18.2159 52.9175 17.9866 53.2055 17.7626C53.4935 17.5279 53.6428 17.3359 53.6535 17.1866L53.6695 16.5146C53.6695 16.3439 53.7495 16.1359 53.9095 15.8906C54.0695 15.6346 54.2508 15.4159 54.4535 15.2346C54.6668 15.0426 54.8588 14.9466 55.0295 14.9466C55.3282 14.9466 55.4775 15.2613 55.4775 15.8906C55.4775 16.7439 55.3815 17.5226 55.1895 18.2266C54.9975 18.9413 54.5068 19.6346 53.7175 20.3066C52.9388 20.9786 51.7495 21.4639 50.1495 21.7626L49.8295 19.0746ZM53.1415 11.1866L55.2855 11.0106C55.4135 13.0266 55.4775 14.6533 55.4775 15.8906C55.4775 16.5306 55.4028 17.0639 55.2535 17.4906C55.1148 17.9173 54.9388 18.2266 54.7255 18.4186C54.5122 18.6213 54.2988 18.7226 54.0855 18.7226C53.9362 18.7226 53.8082 18.6693 53.7015 18.5626C53.5948 18.4666 53.5362 18.3333 53.5255 18.1626L53.1415 11.1866ZM60.6248 17.7946C59.9101 17.7946 59.3128 17.7359 58.8328 17.6186C58.3528 17.4906 57.9474 17.2133 57.6168 16.7866C57.2968 16.3493 57.1261 15.6933 57.1048 14.8186L56.8648 6.94659L59.0408 6.75459V14.3066C59.0408 14.4773 59.0728 14.5999 59.1368 14.6746C59.2114 14.7493 59.3554 14.8026 59.5688 14.8346C59.7821 14.8666 60.1341 14.8826 60.6248 14.8826L60.7848 15.0426V17.6346L60.6248 17.7946ZM70.577 17.7946C69.9263 17.7946 69.409 17.6879 69.025 17.4746C68.641 17.2506 68.3583 16.9893 68.177 16.6906C68.0063 16.3919 67.777 15.9333 67.489 15.3146L67.105 14.4346C67.0623 14.3493 67.041 14.2373 67.041 14.0986C67.041 13.8106 67.137 13.5279 67.329 13.2506C67.521 12.9733 67.7183 12.8346 67.921 12.8346C68.0917 12.8346 68.225 12.9359 68.321 13.1386C68.4597 13.4373 68.593 13.7306 68.721 14.0186C68.881 14.3599 69.0783 14.5893 69.313 14.7066C69.5477 14.8239 69.9423 14.8826 70.497 14.8826H71.665L71.825 15.0426V17.6346L71.665 17.7946H70.577ZM60.625 14.8826H63.137C63.905 14.8826 64.4597 14.8453 64.801 14.7706C65.1423 14.6959 65.441 14.5519 65.697 14.3386C65.9637 14.1146 66.4117 13.6719 67.041 13.0106L68.017 11.9546L70.145 13.6826C69.9743 13.6506 69.8197 13.6346 69.681 13.6346C69.3077 13.6346 69.009 13.7626 68.785 14.0186C67.7503 15.1706 66.9503 15.9973 66.385 16.4986C65.8303 16.9893 65.2597 17.3306 64.673 17.5226C64.0863 17.7039 63.297 17.7946 62.305 17.7946H60.625V14.8826ZM61.313 13.6666L61.537 12.2746C61.6437 11.6026 61.8943 11.0693 62.289 10.6746C62.6837 10.2693 63.217 10.0666 63.889 10.0666C64.1023 10.0666 64.3583 10.0933 64.657 10.1466C67.5263 10.6906 69.5583 11.0906 70.753 11.3466L70.145 13.6826C69.697 13.5866 69.1157 13.4533 68.401 13.2826C68.3903 13.2826 68.3423 13.3146 68.257 13.3786C68.1717 13.4426 68.1183 13.4693 68.097 13.4586L65.585 12.9786C64.2623 12.7333 63.4837 12.5839 63.249 12.5306L63.009 13.9386L61.313 13.6666ZM63.985 19.0746H66.209V21.4106H63.985V19.0746ZM71.6719 14.8826C73.0372 14.8826 73.9439 14.8559 74.3919 14.8026L74.2159 10.7866L76.4079 10.6906V14.4986C76.4079 15.7786 75.9812 16.6479 75.1279 17.1066C74.2852 17.5653 73.1332 17.7946 71.6719 17.7946V14.8826ZM74.5199 7.41059V9.45859H71.9599V7.41059H74.5199ZM76.4719 7.41059V9.45859H73.9119V7.41059H76.4719ZM84.7238 19.9226C82.0998 19.9226 80.7878 18.7013 80.7878 16.2586C80.7878 15.7466 80.8731 14.4773 81.0438 12.4506L82.7558 12.5946L82.7078 13.5066C82.6438 14.8079 82.6118 15.5493 82.6118 15.7306C82.6118 16.2319 82.8038 16.5733 83.1878 16.7546C83.5824 16.9253 84.1318 17.0106 84.8358 17.0106C85.4651 17.0106 86.0838 16.9679 86.6918 16.8826C87.3104 16.7866 87.7958 16.6746 88.1478 16.5466L87.9878 11.5866L90.1478 11.3466V16.3546C90.1478 17.1546 89.9024 17.8213 89.4118 18.3546C88.9318 18.8879 88.2811 19.2826 87.4598 19.5386C86.6491 19.7946 85.7371 19.9226 84.7238 19.9226ZM86.4358 10.8826V13.2186H84.2118V10.8826H86.4358ZM95.4529 17.7946C94.7382 17.7946 94.1409 17.7359 93.6609 17.6186C93.1809 17.4906 92.7755 17.2133 92.4449 16.7866C92.1249 16.3493 91.9542 15.6933 91.9329 14.8186L91.6929 6.94659L93.8689 6.75459V14.3066C93.8689 14.4773 93.9009 14.5999 93.9649 14.6746C94.0395 14.7493 94.1835 14.8026 94.3969 14.8346C94.6102 14.8666 94.9622 14.8826 95.4529 14.8826L95.6129 15.0426V17.6346L95.4529 17.7946ZM101.085 17.8426C100.776 17.8426 100.349 17.7893 99.8051 17.6826C99.2718 17.5759 98.7545 17.4213 98.2531 17.2186C97.7625 17.0159 97.3998 16.7653 97.1651 16.4666C97.0905 16.3813 97.0531 16.2533 97.0531 16.0826C97.0531 15.8906 97.1011 15.6719 97.1971 15.4266C97.2931 15.1706 97.3998 14.9359 97.5171 14.7226C97.6345 14.5093 97.7145 14.3813 97.7571 14.3386C98.1625 14.5199 98.7011 14.6853 99.3731 14.8346C100.056 14.9839 100.765 15.0959 101.501 15.1706V12.8506H99.9651C99.6985 12.8506 99.5011 12.9039 99.3731 13.0106C99.2558 13.1173 99.1705 13.2986 99.1171 13.5546L98.7331 15.2826C98.5411 16.1146 98.1571 16.7439 97.5811 17.1706C97.0158 17.5866 96.3651 17.7946 95.6291 17.7946H95.4531V14.8826H95.6611C96.3865 14.8826 96.8665 14.7333 97.1011 14.4346C97.2611 13.6346 97.3998 12.9893 97.5171 12.4986C97.6878 11.7306 98.0505 11.1546 98.6051 10.7706C99.1598 10.3759 99.8371 10.1786 100.637 10.1786H103.309V15.5546C103.309 16.3546 103.101 16.9359 102.685 17.2986C102.28 17.6613 101.746 17.8426 101.085 17.8426ZM101.611 19.0746C102.421 18.9039 103.115 18.6959 103.691 18.4506C104.267 18.2159 104.699 17.9866 104.987 17.7626C105.275 17.5279 105.424 17.3359 105.435 17.1866L105.451 16.5146C105.451 16.3439 105.531 16.1359 105.691 15.8906C105.851 15.6346 106.032 15.4159 106.235 15.2346C106.448 15.0426 106.64 14.9466 106.811 14.9466C107.109 14.9466 107.259 15.2613 107.259 15.8906C107.259 16.7439 107.163 17.5226 106.971 18.2266C106.779 18.9413 106.288 19.6346 105.499 20.3066C104.72 20.9786 103.531 21.4639 101.931 21.7626L101.611 19.0746ZM104.923 11.1866L107.067 11.0106C107.195 13.0266 107.259 14.6533 107.259 15.8906C107.259 16.5306 107.184 17.0639 107.035 17.4906C106.896 17.9173 106.72 18.2266 106.507 18.4186C106.293 18.6213 106.08 18.7226 105.867 18.7226C105.717 18.7226 105.589 18.6693 105.483 18.5626C105.376 18.4666 105.317 18.3333 105.307 18.1626L104.923 11.1866ZM112.406 17.7946C111.691 17.7946 111.094 17.7359 110.614 17.6186C110.134 17.4906 109.729 17.2133 109.398 16.7866C109.078 16.3493 108.907 15.6933 108.886 14.8186L108.646 6.94659L110.822 6.75459V14.3066C110.822 14.4773 110.854 14.5999 110.918 14.6746C110.993 14.7493 111.137 14.8026 111.35 14.8346C111.563 14.8666 111.915 14.8826 112.406 14.8826L112.566 15.0426V17.6346L112.406 17.7946ZM112.406 14.8826C113.772 14.8826 114.678 14.8559 115.126 14.8026L114.95 10.7866L117.142 10.6906V14.4986C117.142 15.7786 116.716 16.6479 115.862 17.1066C115.02 17.5653 113.868 17.7946 112.406 17.7946V14.8826ZM112.406 19.0426H114.63V21.3786H112.406V19.0426ZM125.602 21.7946C124.247 21.7946 123.229 21.5013 122.546 20.9146C121.863 20.3279 121.522 19.3893 121.522 18.0986C121.522 17.5226 121.597 16.3813 121.746 14.6746L121.778 14.3066L123.49 14.4506L123.458 14.9946C123.437 15.3573 123.41 15.8373 123.378 16.4346C123.357 17.0319 123.346 17.4213 123.346 17.6026C123.346 18.1039 123.554 18.4399 123.97 18.6106C124.386 18.7919 124.989 18.8826 125.778 18.8826C126.61 18.8826 127.383 18.8239 128.098 18.7066C128.823 18.5893 129.378 18.4453 129.762 18.2746L129.746 17.5866C129.735 17.3306 129.842 17.1279 130.066 16.9786C130.301 16.8186 130.562 16.7386 130.85 16.7386C131.085 16.7386 131.282 16.7919 131.442 16.8986C131.602 17.0053 131.682 17.1599 131.682 17.3626V18.1306C131.682 18.9626 131.394 19.6506 130.818 20.1946C130.253 20.7493 129.506 21.1546 128.578 21.4106C127.661 21.6666 126.669 21.7946 125.602 21.7946ZM126.386 17.6506L126.546 14.8826H132.306L132.466 15.0426V17.6346L132.306 17.7946H130.674L126.386 17.6506ZM132.312 14.8826C133.678 14.8826 134.585 14.8559 135.033 14.8026L134.857 10.7866L137.049 10.6906V14.4986C137.049 15.7786 136.622 16.6479 135.769 17.1066C134.926 17.5653 133.774 17.7946 132.312 17.7946V14.8826ZM137.049 7.07459V9.41059H134.825V7.07459H137.049ZM142.422 17.7946C141.707 17.7946 141.11 17.7359 140.63 17.6186C140.15 17.4906 139.744 17.2133 139.414 16.7866C139.094 16.3493 138.923 15.6933 138.902 14.8186L138.662 6.94659L140.838 6.75459V14.3066C140.838 14.4773 140.87 14.5999 140.934 14.6746C141.008 14.7493 141.152 14.8026 141.366 14.8346C141.579 14.8666 141.931 14.8826 142.422 14.8826L142.582 15.0426V17.6346L142.422 17.7946ZM142.406 14.8826C143.451 14.8826 144.241 14.8719 144.774 14.8506C144.891 14.8399 145.019 14.8346 145.158 14.8346V13.7786C145.158 13.5226 145.131 13.3413 145.078 13.2346C145.025 13.1173 144.886 12.9893 144.662 12.8506C144.299 12.6266 143.718 12.2799 142.918 11.8106L142.214 11.3946L142.694 8.00259L148.15 6.19459L147.958 8.65859L144.246 9.74659L144.598 9.95459C145.27 10.3599 145.771 10.7173 146.102 11.0266C146.443 11.3359 146.689 11.7199 146.838 12.1786C146.987 12.6266 147.062 13.2399 147.062 14.0186V14.9626C147.062 16.0506 146.651 16.7973 145.83 17.2026C145.009 17.5973 143.873 17.7946 142.422 17.7946L142.406 14.8826ZM143.286 5.13859L147.414 3.89059L147.286 5.65059L143.078 7.02659L143.286 5.13859ZM145.22 19.0746C146.031 18.9039 146.724 18.6959 147.3 18.4506C147.876 18.2159 148.308 17.9866 148.596 17.7626C148.884 17.5279 149.033 17.3359 149.044 17.1866L149.06 16.5146C149.06 16.3439 149.14 16.1359 149.3 15.8906C149.46 15.6346 149.641 15.4159 149.844 15.2346C150.057 15.0426 150.249 14.9466 150.42 14.9466C150.719 14.9466 150.868 15.2613 150.868 15.8906C150.868 16.7439 150.772 17.5226 150.58 18.2266C150.388 18.9413 149.897 19.6346 149.108 20.3066C148.329 20.9786 147.14 21.4639 145.54 21.7626L145.22 19.0746ZM148.532 11.1866L150.676 11.0106C150.804 13.0266 150.868 14.6533 150.868 15.8906C150.868 16.5306 150.793 17.0639 150.644 17.4906C150.505 17.9173 150.329 18.2266 150.116 18.4186C149.903 18.6213 149.689 18.7226 149.476 18.7226C149.327 18.7226 149.199 18.6693 149.092 18.5626C148.985 18.4666 148.927 18.3333 148.916 18.1626L148.532 11.1866ZM150.751 19.0746C151.562 18.9039 152.255 18.6959 152.831 18.4506C153.407 18.2159 153.839 17.9866 154.127 17.7626C154.415 17.5279 154.565 17.3359 154.575 17.1866L154.591 16.5146C154.591 16.3439 154.671 16.1359 154.831 15.8906C154.991 15.6346 155.173 15.4159 155.375 15.2346C155.589 15.0426 155.781 14.9466 155.951 14.9466C156.25 14.9466 156.399 15.2613 156.399 15.8906C156.399 16.7439 156.303 17.5226 156.111 18.2266C155.919 18.9413 155.429 19.6346 154.639 20.3066C153.861 20.9786 152.671 21.4639 151.071 21.7626L150.751 19.0746ZM154.063 11.1866L156.207 11.0106C156.335 13.0266 156.399 14.6533 156.399 15.8906C156.399 16.5306 156.325 17.0639 156.175 17.4906C156.037 17.9173 155.861 18.2266 155.647 18.4186C155.434 18.6213 155.221 18.7226 155.007 18.7226C154.858 18.7226 154.73 18.6693 154.623 18.5626C154.517 18.4666 154.458 18.3333 154.447 18.1626L154.063 11.1866ZM156.271 7.41059V9.74659H154.047V7.41059H156.271ZM161.547 17.7946C160.832 17.7946 160.235 17.7359 159.755 17.6186C159.275 17.4906 158.869 17.2133 158.539 16.7866C158.219 16.3493 158.048 15.6933 158.027 14.8186L157.787 6.94659L159.963 6.75459V14.3066C159.963 14.4773 159.995 14.5999 160.059 14.6746C160.133 14.7493 160.277 14.8026 160.491 14.8346C160.704 14.8666 161.056 14.8826 161.547 14.8826L161.707 15.0426V17.6346L161.547 17.7946ZM161.547 14.8826C162.912 14.8826 163.819 14.8559 164.267 14.8026L164.091 10.7866L166.283 10.6906V14.4986C166.283 15.7786 165.856 16.6479 165.003 17.1066C164.16 17.5653 163.008 17.7946 161.547 17.7946V14.8826ZM161.547 19.0426H163.771V21.3786H161.547V19.0426Z" fill="#3D3F61"/>
<path d="M186.966 5.74221C185.296 5.65969 183.716 6.00992 182.326 6.6889V0.72965C182.326 0.536134 182.249 0.350545 182.112 0.213709C181.975 0.0768736 181.79 0 181.596 0H177.722C177.528 3.5173e-05 177.343 0.0767942 177.207 0.213399C177.07 0.350003 176.993 0.535268 176.993 0.728456V14.9522C176.993 14.9789 176.995 15.0054 176.998 15.0318C176.997 15.0957 176.993 15.1588 176.993 15.2227C176.993 20.4651 181.243 24.7147 186.485 24.7147C191.873 24.7147 196.212 20.2264 195.967 14.7851C195.749 9.92987 191.82 5.9822 186.966 5.74221ZM190.574 15.487C190.417 17.4758 188.806 19.087 186.818 19.2438C184.29 19.4428 182.196 17.3493 182.395 14.8213C182.552 12.8325 184.163 11.2213 186.152 11.0645C188.68 10.8653 190.774 12.9591 190.574 15.487Z" fill="#3D3F61"/>
<path d="M199.884 19.2433C197.882 19.142 196.256 17.5187 196.154 15.5194C196.138 15.1999 196.13 14.5865 196.126 13.9295V11.2957H200.893C200.99 11.2957 201.087 11.2766 201.177 11.2394C201.266 11.2022 201.348 11.1477 201.417 11.079C201.486 11.0102 201.54 10.9286 201.577 10.8388C201.615 10.749 201.634 10.6527 201.634 10.5554V6.51636C201.634 6.32323 201.557 6.13801 201.421 6.00145C201.284 5.86489 201.099 5.78817 200.906 5.78817H196.132C196.131 5.78817 196.129 5.78748 196.128 5.78627C196.127 5.78505 196.126 5.78339 196.126 5.78167V0.737667C196.126 0.542182 196.048 0.354703 195.91 0.216474C195.772 0.0782446 195.584 0.000588503 195.389 0.000588503H191.328C191.232 0.000588503 191.136 0.01953 191.048 0.0563316C190.959 0.0931333 190.878 0.147074 190.81 0.215074C190.742 0.283075 190.688 0.363804 190.651 0.452651C190.615 0.541498 190.596 0.636723 190.596 0.732891V15.1534C190.596 15.2072 190.604 15.2607 190.618 15.3126V15.3142C190.618 20.5987 194.796 25.167 200.089 25.167C200.239 25.167 201.675 25.1833 201.779 25.1845C201.783 25.1845 201.785 24.7442 201.785 24.7406V19.2375C201.785 19.2366 201.785 19.2358 201.785 19.235C201.784 19.2343 201.784 19.2335 201.783 19.2329C201.783 19.2323 201.782 19.2318 201.781 19.2315C201.781 19.2312 201.78 19.231 201.779 19.231C201.669 19.2326 200.112 19.2555 199.884 19.2433Z" fill="#3D3F61"/>
<path d="M220.586 14.9351C220.361 10.0908 216.442 6.15392 211.599 5.90836C206.19 5.63428 201.712 9.89039 201.617 15.2163H201.613V32.8919C201.613 33.0872 201.69 33.2745 201.829 33.4126C201.967 33.5508 202.154 33.6284 202.349 33.6284H206.254C206.449 33.6284 206.636 33.5512 206.774 33.4136C206.912 33.276 206.991 33.0893 206.992 32.8943L207.034 24.8785C208.347 24.8785 209.63 24.8798 211.105 24.8798C216.497 24.8804 220.839 20.3831 220.586 14.9351ZM215.201 15.1807C215.201 17.4265 213.364 19.264 211.118 19.264H207.034V15.1807C207.034 12.9349 208.872 11.0975 211.118 11.0975C213.363 11.0975 215.201 12.9349 215.201 15.1807Z" fill="#3D3F61"/>
</svg>
